<svg width="17" height="16" viewBox="0 0 17 16" fill="none" xmlns="http://www.w3.org/2000/svg">
    <path fill-rule="evenodd" clip-rule="evenodd" d="M11.8623 7.40118C11.4844 7.77856 10.9824 7.98438 10.4492 7.98438C9.91602 7.98438 9.41406 7.77856 9.03613 7.40118C8.66211 7.02374 8.45312 6.52161 8.45312 5.98828C8.45312 4.88733 9.34863 3.99219 10.4492 3.99219C11.5156 3.99219 12.4453 4.92474 12.4453 5.98828C12.4453 6.52161 12.2393 7.02374 11.8623 7.40118ZM11.0889 5.34894C10.917 5.17737 10.6924 5.0838 10.4492 5.0838C9.9502 5.0838 9.54199 5.48926 9.54492 5.98828C9.54492 6.47174 9.96582 6.89276 10.4492 6.89276C10.6895 6.89276 10.917 6.79919 11.0889 6.62769C11.2607 6.45612 11.3535 6.23157 11.3535 5.98828C11.3535 5.74811 11.2607 5.52045 11.0889 5.34894Z" fill="#6B6C7E"/>
    <path fill-rule="evenodd" clip-rule="evenodd" d="M15.7734 8.15283L15.8047 8.19025C16.7188 9.29749 16.6338 10.8943 15.6084 11.9828L15.5859 12.0047L12.8604 14.7306C11.9307 15.6974 10.7764 15.9158 10.1719 15.9626L10.1338 15.9657L3.13867 15.9688C2.43359 15.9688 1.7627 15.6881 1.25781 15.1829C0.749023 14.6744 0.46875 14.0039 0.46875 13.2959V2.68225C0.46875 1.98053 0.746094 1.30994 1.25488 0.798462C1.7627 0.283813 2.43359 0 3.13867 0H10.3184L10.3525 0.00311279C10.8613 0.0405273 11.8496 0.240173 12.7607 1.14777L15.7734 4.16064L15.8047 4.19806C16.7188 5.30524 16.6367 6.89905 15.6113 7.99066L15.7734 8.15283ZM2.66797 9.77777C2.80176 9.91187 2.96387 9.98047 3.13867 9.98047H10.0596C10.3896 9.95245 10.9766 9.8277 11.4287 9.35358L11.4443 9.33801L14.1641 6.61829C14.4785 6.27521 14.5283 5.823 14.2891 5.50177L11.3477 2.56061C10.9141 2.12708 10.4775 2.02106 10.2373 1.99609H3.13867C2.78613 1.99609 2.46484 2.32361 2.46484 2.68536V9.30371C2.46484 9.48145 2.5332 9.64368 2.66797 9.77777ZM3.13867 13.9727C2.96387 13.9727 2.80176 13.9041 2.66797 13.77C2.5332 13.6359 2.46484 13.4737 2.46484 13.2959V11.8893C2.68359 11.9454 2.9082 11.9766 3.13867 11.9766L10.1338 11.9735L10.1719 11.9704C10.7764 11.9236 11.9307 11.7053 12.8604 10.7384L14.1982 9.40039L14.2891 9.49084C14.5283 9.81207 14.4785 10.2643 14.1641 10.6074L11.4287 13.3427C10.9766 13.8168 10.3896 13.9415 10.0596 13.9696L3.13867 13.9727Z" fill="#6B6C7E"/>
</svg>
