<svg xmlns="http://www.w3.org/2000/svg" viewBox="0 0 16 16">
	<path fill-rule="evenodd" clip-rule="evenodd" d="M13.333.252c-.64 0-1.254.254-1.707.707L5.293 7.292a1 1 0 00-.263.465l-.667 2.667a1 1 0 001.213 1.212l2.666-.666a1 1 0 00.465-.263l6.333-6.334A2.414 2.414 0 0013.333.252zm-.293 2.121a.414.414 0 01.586.586L7.488 9.097l-.78.195.195-.781 6.137-6.138z"></path>
	<path d="M2.666 1.667A2.333 2.333 0 00.333 4v9.334a2.333 2.333 0 002.333 2.333H12a2.333 2.333 0 002.333-2.333V8.667a1 1 0 10-2 0v4.667a.334.334 0 01-.333.333H2.666a.333.333 0 01-.333-.333V4a.333.333 0 01.333-.333h4.667a1 1 0 100-2H2.666z"></path>
</svg>