<?xml version="1.0" encoding="UTF-8"?><!DOCTYPE svg PUBLIC "-//W3C//DTD SVG 1.1//EN" "http://www.w3.org/Graphics/SVG/1.1/DTD/svg11.dtd"><svg xmlns="http://www.w3.org/2000/svg" xmlns:xlink="http://www.w3.org/1999/xlink"><symbol id="arrow-right" viewBox="0 0 24 24">
	<path d="M14.07 7.324a1 1 0 00-1.474 1.352L14.726 11H6a1 1 0 100 2h8.727l-2.13 2.324a1 1 0 101.473 1.352l3.667-4a1 1 0 000-1.352l-3.667-4z"/>
</symbol><symbol id="award" viewBox="0 0 16 16">
	<path fill-rule="evenodd" clip-rule="evenodd" d="M4.567 9.636a5.41 5.41 0 116.866-.001l.695 5.24a.955.955 0 01-1.437.944L8 14.204l-2.691 1.614a.955.955 0 01-1.437-.944l.695-5.238zM4.5 5.454a3.5 3.5 0 115.46 2.902.95.95 0 00-.125.08A3.5 3.5 0 014.5 5.454zm5.138 5.158a5.406 5.406 0 01-1.638.252c-.57 0-1.12-.088-1.635-.252l-.339 2.55 1.484-.89a.955.955 0 01.982 0l1.484.89-.338-2.55z"/>
</symbol><symbol id="briefcase" viewBox="0 0 32 32">
	<path fill-rule="evenodd" clip-rule="evenodd" d="M14.5 9.25c-1.264 0-2.25 1.049-2.25 2.296v1.417H9.882c-1.04 0-1.882.752-1.882 1.68v6.64c0 .927.843 1.68 1.882 1.68h12.236c1.04 0 1.882-.753 1.882-1.68v-6.64c0-.928-.843-1.68-1.882-1.68H19.75v-1.417c0-1.247-.986-2.296-2.25-2.296h-3zm3.75 3.713v-1.417c0-.461-.357-.796-.75-.796h-3c-.393 0-.75.335-.75.796v1.417h4.5z"/>
</symbol><symbol id="close" viewBox="0 0 24 24">
	<path d="M17.293 5.293a1 1 0 111.414 1.414L13.414 12l5.293 5.293a1 1 0 01-1.414 1.414L12 13.414l-5.293 5.293a1 1 0 01-1.414-1.414L10.586 12 5.293 6.707a1 1 0 011.414-1.414L12 10.586l5.293-5.293z"/>
</symbol><symbol id="collapse" viewBox="0 0 34 34">
	<g clip-path="url(#collapse-clip-1)">
		<path fill-rule="evenodd" clip-rule="evenodd" d="M21.243 12.758a6 6 0 10-8.486 8.484 6 6 0 008.486-8.484zm-9.9-1.415a8 8 0 1111.314 11.314 8 8 0 01-11.314-11.314zm2.121 2.122a1 1 0 011.415 0L17 15.586l2.121-2.121a1 1 0 011.415 1.414L18.413 17l2.121 2.122a1 1 0 11-1.414 1.414L17 18.414l-2.121 2.122a1 1 0 01-1.415-1.414L15.586 17l-2.122-2.121a1 1 0 010-1.414z"/>
	</g><defs>
		<clipPath id="collapse-clip-1">
			<path transform="rotate(45 17 .03)" fill="#fff" d="M17 .029h24v24H17z"/>
		</clipPath>
	</defs>
</symbol><symbol id="display" viewBox="0 0 512 512" xmlns="http://www.w3.org/2000/svg">
	<path d="M448,0H64C28.8,0,0,28.8,0,64v289.2c0,35.2,28.8,64,64,64h384c35.2,0,64-28.8,64-64V64C512,28.8,483.2,0,448,0z M448,320H64V64h384V320z"/>
	<path d="M320,448H192c-42.3,0-43,64,0,64h128C362.3,512,363.3,448,320,448z"/>
</symbol><symbol id="document" viewBox="0 0 32 32">
	<path fill-rule="evenodd" clip-rule="evenodd" d="M13 17h6a1 1 0 0 1 1 1v2a1 1 0 0 1-1 1h-6a1 1 0 0 1-1-1v-2a1 1 0 0 1 1-1zm6 3v-2h-6v2h6z"/>
	<path d="M13 16h6c1.313 0 1.313-2 0-2h-6c-1.344 0-1.313 2 0 2z"/>
	<path fill-rule="evenodd" clip-rule="evenodd" d="M11 8h7.172c.889 0 1.278.404 2.184 1.342l.058.06.036.037a48.237 48.237 0 0 0 1.186 1.186l.006.006c.963.937 1.358 1.32 1.358 2.197V22c0 1.103-.896 2-2 2H11c-1.104 0-2-.897-2-2V10c0-1.103.896-2 2-2zm7 4v-2h-7v12h10v-9h-2a1 1 0 0 1-1-1z"/>
</symbol><symbol id="download" viewBox="0 0 24 24">
	<path d="M13 6a1 1 0 10-2 0v6.727l-2.324-2.13a1 1 0 10-1.352 1.473l4 3.667a1 1 0 001.352 0l4-3.667a1 1 0 00-1.352-1.474L13 12.726V6zM6 18a1 1 0 100 2h12a1 1 0 100-2H6z"/>
</symbol><symbol id="dropdown-caret" viewBox="0 0 24 24">
	<path d="M11.252 17.16L5.48 10.663C4.906 10.02 5.364 9 6.227 9h11.546c.863 0 1.32 1.02.747 1.664l-5.773 6.495a1 1 0 01-1.495 0z"/>
</symbol><symbol id="edit" viewBox="0 0 16 16">
	<path fill-rule="evenodd" clip-rule="evenodd" d="M13.333.252c-.64 0-1.254.254-1.707.707L5.293 7.292a1 1 0 00-.263.465l-.667 2.667a1 1 0 001.213 1.212l2.666-.666a1 1 0 00.465-.263l6.333-6.334A2.414 2.414 0 0013.333.252zm-.293 2.121a.414.414 0 01.586.586L7.488 9.097l-.78.195.195-.781 6.137-6.138z"/>
	<path d="M2.666 1.667A2.333 2.333 0 00.333 4v9.334a2.333 2.333 0 002.333 2.333H12a2.333 2.333 0 002.333-2.333V8.667a1 1 0 10-2 0v4.667a.334.334 0 01-.333.333H2.666a.333.333 0 01-.333-.333V4a.333.333 0 01.333-.333h4.667a1 1 0 100-2H2.666z"/>
</symbol><symbol id="external-link" viewBox="0 0 24 24">
	<path d="M8 7h3a1 1 0 000-2H8a3 3 0 00-3 3v8a3 3 0 003 3h8a3 3 0 003-3v-3a1 1 0 00-2 0v3a1 1 0 01-1 1H8a1 1 0 01-1-1V8a1 1 0 011-1z"/>
	<path d="M13 6a1 1 0 011-1h4a1 1 0 011 1v4a1 1 0 01-2 0V8.415l-4.296 4.296a1 1 0 11-1.414-1.414L15.586 7H14a1 1 0 01-1-1z"/>
</symbol><symbol id="home" viewBox="0 0 32 32">
	<path d="M23 25h-5v-7h-4v7H9a1 1 0 0 1-1-1v-7h-.793a.5.5 0 0 1-.353-.854l8.439-8.439a1 1 0 0 1 1.414 0l8.44 8.44a.5.5 0 0 1-.354.853H24v7a1 1 0 0 1-1 1z"/>
</symbol><symbol id="icon--document-doc" viewBox="0 0 40 40" fill="none" xmlns="http://www.w3.org/2000/svg">
	<path d="M17.805 24.752c0 .4.06.768.18 1.104.128.328.308.616.54.864.232.24.508.428.828.564.328.136.692.204 1.092.204.4 0 .76-.068 1.08-.204.328-.136.608-.324.84-.564.232-.248.408-.536.528-.864.128-.336.192-.704.192-1.104 0-.392-.064-.756-.192-1.092a2.373 2.373 0 0 0-.528-.864 2.385 2.385 0 0 0-.84-.576 2.736 2.736 0 0 0-1.08-.204c-.4 0-.764.068-1.092.204-.32.136-.596.328-.828.576-.232.24-.412.528-.54.864-.12.336-.18.7-.18 1.092zm-8.721 2.52h.972c.432 0 .832-.044 1.2-.132.376-.088.7-.232.972-.432a2.11 2.11 0 0 0 .636-.804c.16-.336.24-.744.24-1.224 0-.416-.08-.776-.24-1.08a2.1 2.1 0 0 0-.624-.768 2.67 2.67 0 0 0-.936-.444 3.919 3.919 0 0 0-1.116-.156H9.084v5.04z" fill="#297BC8"/>
	<path fill-rule="evenodd" clip-rule="evenodd" d="M8.75 1.25h16.875L35 10.625V35a3.748 3.748 0 0 1-3.75 3.75H8.75A3.748 3.748 0 0 1 5 35V5a3.748 3.748 0 0 1 3.75-3.75zm7.111 23.502c0-.68.112-1.296.336-1.848a4.06 4.06 0 0 1 .96-1.404 4.157 4.157 0 0 1 1.452-.9 5.234 5.234 0 0 1 1.836-.312c.664 0 1.276.104 1.836.312.56.208 1.044.508 1.452.9.408.384.724.852.948 1.404.232.552.348 1.168.348 1.848 0 .68-.116 1.296-.348 1.848a4.046 4.046 0 0 1-.948 1.416 4.25 4.25 0 0 1-1.452.888 5.234 5.234 0 0 1-1.836.312 5.234 5.234 0 0 1-1.836-.312 4.25 4.25 0 0 1-1.452-.888 4.186 4.186 0 0 1-.96-1.416c-.224-.552-.336-1.168-.336-1.848zm-8.65-4.248h2.809c.68 0 1.324.076 1.932.228.616.152 1.152.4 1.608.744a3.51 3.51 0 0 1 1.08 1.32c.272.544.408 1.204.408 1.98 0 .688-.132 1.296-.396 1.824-.256.52-.604.96-1.044 1.32-.44.352-.948.62-1.524.804a5.918 5.918 0 0 1-1.812.276h-3.06v-8.496zm23.963 1.692c.271.12.5.292.684.516l1.44-1.176a2.888 2.888 0 0 0-.625-.588 3.626 3.626 0 0 0-1.5-.588 4.035 4.035 0 0 0-.743-.072c-.665 0-1.276.104-1.837.312a4.157 4.157 0 0 0-1.451.9 4.06 4.06 0 0 0-.96 1.404c-.224.552-.336 1.168-.336 1.848 0 .68.111 1.296.335 1.848.232.552.552 1.024.96 1.416.409.384.893.68 1.453.888.56.208 1.171.312 1.835.312.585 0 1.152-.12 1.704-.36a3.249 3.249 0 0 0 1.368-1.116l-1.56-1.164a2.03 2.03 0 0 1-.732.672c-.296.16-.636.24-1.02.24a2.244 2.244 0 0 1-1.704-.768 2.917 2.917 0 0 1-.515-.864 3.261 3.261 0 0 1-.18-1.104c0-.392.06-.756.18-1.092.128-.336.3-.624.515-.864.224-.248.485-.44.78-.576.305-.136.633-.204.985-.204s.66.06.924.18z" fill="#297BC8"/>
</symbol><symbol id="icon--document-pdf" viewBox="0 0 40 40" fill="none" xmlns="http://www.w3.org/2000/svg">
	<path d="M9.964 23.696h1.352c.182 0 .355-.017.52-.052.173-.035.325-.091.455-.169a.933.933 0 0 0 .325-.338c.087-.147.13-.33.13-.546 0-.234-.056-.42-.169-.559a1 1 0 0 0-.416-.338 1.607 1.607 0 0 0-.559-.143 4.825 4.825 0 0 0-.598-.039h-1.04v2.184zm8.188 3.432h1.053c.469 0 .902-.048 1.3-.143a2.851 2.851 0 0 0 1.053-.468c.295-.225.525-.516.69-.871.173-.364.26-.806.26-1.326 0-.45-.087-.84-.26-1.17a2.277 2.277 0 0 0-.677-.832 2.893 2.893 0 0 0-1.014-.481 4.245 4.245 0 0 0-1.208-.169h-1.197v5.46z" fill="#ED1C2E"/>
	<path fill-rule="evenodd" clip-rule="evenodd" d="M8.75 1.25h16.875L35 10.625V35a3.748 3.748 0 0 1-3.75 3.75H8.75A3.748 3.748 0 0 1 5 35V5a3.748 3.748 0 0 1 3.75-3.75zm-.814 18.546h3.419c.477 0 .927.043 1.352.13.425.087.793.238 1.105.455.32.208.572.494.754.858.19.355.286.806.286 1.352 0 .537-.087.988-.26 1.352a2.218 2.218 0 0 1-.715.871 2.977 2.977 0 0 1-1.079.468c-.416.087-.867.13-1.352.13H9.964V29H7.936v-9.204zm8.189 0h3.041c.737 0 1.435.082 2.093.247a4.741 4.741 0 0 1 1.742.806c.494.364.884.84 1.17 1.43.295.59.442 1.304.442 2.145 0 .745-.142 1.404-.428 1.976a4.25 4.25 0 0 1-1.131 1.43 5.098 5.098 0 0 1-1.651.871c-.624.2-1.279.299-1.963.299h-3.316v-9.204zm16.117 0h-6.175V29h2.028v-3.588h3.835V23.54h-3.835v-1.872h4.147v-1.872z" fill="#ED1C2E"/>
</symbol><symbol id="icon--document-ppt" viewBox="0 0 40 40" fill="none" xmlns="http://www.w3.org/2000/svg">
	<path d="M12.232 24.104h1.248c.168 0 .328-.016.48-.048.16-.032.3-.084.42-.156a.862.862 0 0 0 .3-.312.98.98 0 0 0 .12-.504c0-.216-.052-.388-.156-.516a.923.923 0 0 0-.384-.312 1.484 1.484 0 0 0-.516-.132 4.454 4.454 0 0 0-.552-.036h-.96v2.016zm7.559 0h1.248c.168 0 .328-.016.48-.048.16-.032.3-.084.42-.156a.862.862 0 0 0 .3-.312.98.98 0 0 0 .12-.504c0-.216-.052-.388-.156-.516a.923.923 0 0 0-.384-.312 1.484 1.484 0 0 0-.516-.132 4.454 4.454 0 0 0-.552-.036h-.96v2.016z" fill="#F29100"/>
	<path fill-rule="evenodd" clip-rule="evenodd" d="M8.75 1.25h16.875L35 10.625V35a3.748 3.748 0 0 1-3.75 3.75H8.75A3.748 3.748 0 0 1 5 35V5a3.748 3.748 0 0 1 3.75-3.75zm1.61 19.254h3.156c.44 0 .856.04 1.248.12.392.08.732.22 1.02.42.296.192.528.456.696.792.176.328.264.744.264 1.248 0 .496-.08.912-.24 1.248-.16.336-.38.604-.66.804-.28.2-.612.344-.996.432-.384.08-.8.12-1.248.12h-1.368V29H10.36v-8.496zm7.559 0h3.156c.44 0 .856.04 1.248.12.392.08.732.22 1.02.42.296.192.528.456.696.792.176.328.264.744.264 1.248 0 .496-.08.912-.24 1.248-.16.336-.38.604-.66.804-.28.2-.612.344-.996.432-.384.08-.8.12-1.248.12H19.79V29h-1.872v-8.496zm6.778 1.656h2.424V29h1.872v-6.84h2.424v-1.656h-6.72v1.656z" fill="#F29100"/>
</symbol><symbol id="icon--document-xls" viewBox="0 0 40 40" fill="none" xmlns="http://www.w3.org/2000/svg">
	<path fill-rule="evenodd" clip-rule="evenodd" d="M8.75 1.25H25.625L35 10.625V35C35 37.0728 33.3228 38.75 31.25 38.75H8.75C6.67725 38.75 5 37.0728 5 35V5C5 2.92725 6.67725 1.25 8.75 1.25ZM28.5455 22.16C28.8095 22.248 29.0175 22.388 29.1695 22.58L30.4535 21.176C30.0935 20.856 29.6895 20.628 29.2415 20.492C28.7935 20.356 28.3295 20.288 27.8495 20.288C27.4335 20.288 27.0295 20.348 26.6375 20.468C26.2455 20.58 25.8975 20.752 25.5935 20.984C25.2975 21.216 25.0575 21.504 24.8735 21.848C24.6975 22.192 24.6095 22.592 24.6095 23.048C24.6095 23.52 24.7055 23.9 24.8975 24.188C25.0975 24.476 25.3455 24.708 25.6415 24.884C25.9375 25.06 26.2575 25.2 26.6015 25.304C26.9455 25.408 27.2655 25.512 27.5615 25.616C27.8575 25.72 28.1015 25.848 28.2935 26C28.4935 26.144 28.5935 26.344 28.5935 26.6C28.5935 26.752 28.5535 26.884 28.4735 26.996C28.4015 27.108 28.3015 27.2 28.1735 27.272C28.0535 27.344 27.9135 27.4 27.7535 27.44C27.6015 27.472 27.4495 27.488 27.2975 27.488C26.9855 27.488 26.6815 27.42 26.3855 27.284C26.0975 27.14 25.8575 26.94 25.6655 26.684L24.3335 28.148C24.7415 28.524 25.1815 28.796 25.6535 28.964C26.1255 29.132 26.6375 29.216 27.1895 29.216C27.6295 29.216 28.0455 29.16 28.4375 29.048C28.8375 28.936 29.1855 28.764 29.4815 28.532C29.7855 28.3 30.0255 28.008 30.2015 27.656C30.3775 27.304 30.4655 26.892 30.4655 26.42C30.4655 25.924 30.3695 25.528 30.1775 25.232C29.9855 24.936 29.7415 24.7 29.4455 24.524C29.1575 24.348 28.8455 24.212 28.5095 24.116C28.1735 24.02 27.8575 23.924 27.5615 23.828C27.2735 23.732 27.0335 23.616 26.8415 23.48C26.6495 23.344 26.5535 23.148 26.5535 22.892C26.5535 22.732 26.5935 22.596 26.6735 22.484C26.7535 22.372 26.8575 22.284 26.9855 22.22C27.1135 22.148 27.2495 22.096 27.3935 22.064C27.5375 22.032 27.6775 22.016 27.8135 22.016C28.0455 22.016 28.2895 22.064 28.5455 22.16ZM11.976 24.56L9.168 20.504H11.52L13.332 23.48L15.072 20.504H17.34L14.592 24.524L17.664 29H15.312L13.236 25.58L11.22 29H9L11.976 24.56ZM18.5962 20.504H20.4682V27.272H23.9362V29H18.5962V20.504Z" fill="#287D3C"/>
</symbol><symbol id="logo" viewBox="0 0 236 221">
	<g stroke="none" stroke-width="1" fill="none" fill-rule="evenodd">
		<g>
			<mask id="mask-2" fill="white">
				<polygon points="0.06 0.144 227.327 0.144 227.327 189.53 0.06 189.53"></polygon>
			</mask>
			<g></g>
			<polyline fill="#D82332" mask="url(#mask-2)" points="204.105 0.144 182.454 175.646 1.492 175.646 1.492 189.385 195.466 189.385 204.317 57.999 212.747 189.53 227.327 189.53 204.105 0.144"></polyline>
			<path d="M20.708,55.141 C14.455,55.141 10.94,62.017 10.94,80.304 C10.94,100.463 15.395,103.746 19.926,103.746 C22.661,103.746 25.785,102.183 27.742,100.232 L27.742,107.654 C25.785,108.824 21.88,109.605 18.363,109.605 C7.893,109.605 0,100.698 0,80.304 C0,61.159 8.987,49.828 20.708,49.828 C23.835,49.828 25.785,50.217 28.13,50.998 L28.13,58.425 C26.179,56.861 23.441,55.141 20.708,55.141" fill="#1A1919" mask="url(#mask-2)"/>
		</g>
		<path d="M49.612,108.434 L49.612,80.696 C49.612,76.396 48.831,73.661 45.314,73.661 C43.359,73.661 41.018,75.615 41.018,79.521 L41.018,108.434 L31.641,108.434 L31.641,51.001 L41.018,51.001 L41.018,72.488 C42.578,69.362 46.096,67.41 49.222,67.41 C55.084,67.41 58.989,70.925 58.989,79.133 L58.989,108.434 L49.612,108.434" fill="#1A1919"/>
		<path d="M84.373,108.434 L84.373,104.139 C83.199,106.482 80.077,109.608 75.777,109.608 C69.916,109.608 66.007,106.09 66.007,97.496 L66.007,68.584 L75.387,68.584 L75.387,95.933 C75.387,100.62 76.557,102.963 79.295,102.963 C82.42,102.963 83.983,100.62 83.983,95.933 L83.983,68.584 L93.358,68.584 L93.358,108.434 L84.373,108.434" fill="#1A1919"/>
		<path d="M117.182,76.006 C112.886,76.006 110.537,80.302 110.537,88.118 L110.537,108.434 L101.16,108.434 L101.16,68.583 L110.148,68.583 L110.148,78.351 C111.711,71.316 113.664,67.41 118.354,67.41 C119.057,67.41 120.15,67.567 120.696,67.802 L120.696,76.787 C119.523,76.241 118.745,76.006 117.182,76.006" fill="#1A1919"/>
		<path d="M136.32,109.607 C127.881,109.607 121.863,103.354 121.863,88.899 C121.863,76.006 127.881,67.408 137.884,67.408 C140.229,67.408 142.184,67.802 143.742,68.193 L143.742,75.616 C142.184,74.053 140.62,72.879 138.275,72.879 C135.149,72.879 132.024,74.834 132.024,88.117 C132.024,102.573 135.149,103.901 137.884,103.901 C140.229,103.901 142.184,102.573 143.742,100.621 L143.742,108.044 C142.184,108.826 139.057,109.607 136.32,109.607" fill="#1A1919"/>
		<path d="M166.393,108.434 L166.393,80.696 C166.393,76.396 165.611,73.661 162.095,73.661 C160.14,73.661 157.799,75.615 157.799,79.521 L157.799,108.434 L148.418,108.434 L148.418,51.001 L157.799,51.001 L157.799,72.488 C159.358,69.362 162.877,67.41 166.003,67.41 C171.862,67.41 175.771,70.925 175.771,79.133 L175.771,108.434 L166.393,108.434" fill="#1A1919"/>
		<polyline fill="#1A1919" points="32.847 166.428 32.847 126.507 22.549 166.428 17.981 166.428 7.465 127.237 7.465 166.428 2.025 166.428 2.025 112.587 12.905 112.587 22.332 147.75 31.397 112.587 41.913 112.587 41.913 166.428 32.847 166.428"></polyline>
		<path d="M64.563,166.428 L64.563,162.4 C63.464,164.597 60.536,167.527 56.504,167.527 C51.011,167.527 47.348,164.232 47.348,156.173 L47.348,129.069 L56.14,129.069 L56.14,154.71 C56.14,159.103 57.239,161.302 59.803,161.302 C62.731,161.302 64.195,159.103 64.195,154.71 L64.195,129.069 L72.986,129.069 L72.986,166.428 L64.563,166.428" fill="#1A1919"/>
		<path d="M92.786,167.528 C86.559,167.528 82.897,164.231 82.897,157.272 L82.897,133.83 L78.135,133.83 L78.135,129.07 L83.63,129.07 L87.658,119.914 L91.687,119.914 L91.687,129.07 L99.378,129.07 L99.378,133.83 L91.687,133.83 L91.687,156.54 C91.687,161.667 93.885,162.399 95.717,162.399 C97.182,162.399 98.646,161.667 99.378,160.936 L99.378,166.062 C97.182,167.16 94.982,167.528 92.786,167.528" fill="#1A1919"/>
		<path d="M121.407,166.428 L121.407,162.4 C120.308,164.597 117.379,167.527 113.348,167.527 C107.853,167.527 104.192,164.232 104.192,156.173 L104.192,129.069 L112.98,129.069 L112.98,154.71 C112.98,159.103 114.083,161.302 116.647,161.302 C119.575,161.302 121.039,159.103 121.039,154.71 L121.039,129.069 L129.831,129.069 L129.831,166.428 L121.407,166.428" fill="#1A1919"/>
		<path d="M151.064,147.749 L149.82,148.117 C146.01,149.213 143.445,151.191 143.373,155.073 C143.301,159.616 144.84,161.301 147.4,161.301 C149.601,161.301 151.064,159.47 151.064,156.173 L151.064,147.749 Z M153.85,166.428 C152.896,164.964 152.527,164.231 152.163,162.032 C150.699,165.329 147.4,167.16 143.739,167.16 C138.248,167.16 134.947,162.764 134.947,156.541 C134.947,147.749 142.491,145.843 149.601,144.086 L151.064,143.722 L151.064,137.86 C151.064,133.831 149.232,133.098 146.668,133.098 C143.739,133.098 142.641,135.298 142.641,138.374 L142.641,140.058 L135.681,140.058 L135.681,139.69 C135.681,133.467 140.444,127.97 148.135,127.97 C154.727,127.97 159.487,130.534 159.487,138.593 L159.487,158.368 C159.487,162.032 160.22,163.501 162.052,166.428 L153.85,166.428 L153.85,166.428 Z" fill="#1A1919"/>
		<polyline fill="#1A1919" points="166.338 166.428 166.258 112.479 175.683 112.479 175.685 166.428 166.338 166.428"></polyline>
		<polygon fill="#1A1919" points="2.025 220.33 5.821 220.33 5.821 198.545 2.025 198.545"></polygon>
		<polyline fill="#1A1919" points="30.79 220.333 24.921 204.329 24.921 220.333 22.73 220.333 22.73 198.547 26.5 198.547 31.637 212.328 31.637 198.547 33.829 198.547 33.829 220.333 30.79 220.333"></polyline>
		<path d="M53.895,220.928 C52.873,220.928 51.993,220.776 51.12,220.332 L51.12,217.37 C52.29,218.407 53.163,218.762 54.333,218.762 C56.086,218.762 57.253,217.37 57.253,215.739 C57.253,214.554 56.608,213.513 55.79,212.633 L53.312,209.954 C52.142,208.717 51.12,207.14 51.12,204.479 C51.12,200.921 53.895,198.397 57.253,198.397 C58.416,198.397 59.002,198.488 59.882,198.781 L59.882,201.511 C59.147,200.769 58.13,200.325 57.108,200.325 C55.355,200.325 54.478,201.666 54.478,202.997 C54.478,204.327 55.119,205.307 55.735,205.958 L57.981,208.33 C59.905,210.373 60.607,211.649 60.607,214.108 C60.607,217.814 57.543,220.928 53.895,220.928" fill="#1A1919"/>
		<path d="M81.367,220.779 C78.592,220.779 75.966,219.088 75.966,214.763 L75.966,198.546 L79.762,198.546 L79.762,214.701 C79.762,217.222 80.494,218.491 81.951,218.491 C83.465,218.491 84.432,217.518 84.432,214.556 L84.432,198.546 L86.769,198.546 L86.769,214.556 C86.769,219.149 83.994,220.779 81.367,220.779" fill="#1A1919"/>
		<path d="M107.239,200.326 L106.507,200.326 L106.507,209.514 L107.239,209.514 C109.282,209.514 110.304,208.476 110.304,204.77 C110.304,201.067 109.282,200.326 107.239,200.326 M111.325,220.333 L107.97,211.444 L106.507,211.444 L106.507,220.333 L102.717,220.333 L102.717,198.547 L106.507,198.398 C111.473,198.222 114.1,199.642 114.1,204.177 C114.1,206.697 112.93,209.072 111.325,210.106 L115.618,220.333 L111.325,220.333" fill="#1A1919"/>
		<path d="M138.072,202.326 L136.178,211.666 L139.913,211.666 L138.072,202.326 Z M141.666,220.557 L140.318,213.738 L135.826,213.738 L134.425,220.557 L131.943,220.557 L137.051,198.768 L140.848,198.768 L145.665,220.557 L141.666,220.557 L141.666,220.557 Z" fill="#1A1919"/>
		<g transform="translate(161.000000, 198.000000)">
			<mask id="mask-4" fill="white">
				<polygon points="0.99 0.325 40.01 0.325 40.01 22.94 0.99 22.94"></polygon>
			</mask>
			<g></g>
			<polyline fill="#1A1919" mask="url(#mask-4)" points="9.051 22.333 3.182 6.329 3.182 22.333 0.99 22.333 0.99 0.547 4.761 0.547 9.899 14.328 9.899 0.547 12.09 0.547 12.09 22.333 9.051 22.333"></polyline>
			<path d="M37.234,2.34 C34.899,2.34 33.587,4.95 33.587,11.889 C33.587,19.536 35.246,20.776 36.944,20.776 C37.966,20.776 39.13,20.186 39.861,19.449 L39.861,22.259 C39.13,22.707 37.673,23 36.361,23 C32.449,23 29.5,19.62 29.5,11.889 C29.5,4.628 32.855,0.325 37.234,0.325 C38.404,0.325 39.13,0.473 40.01,0.769 L40.01,3.583 C39.278,2.997 38.256,2.34 37.234,2.34" fill="#1A1919" mask="url(#mask-4)"/>
		</g>
		<polyline fill="#1A1919" points="218.42 220.333 218.42 198.547 227.18 198.547 227.18 200.771 222.216 200.809 222.216 207.941 226.744 207.825 226.744 209.962 222.216 209.84 222.216 218.015 227.327 218.022 227.327 220.333 218.42 220.333"></polyline>
		<path d="M232.792,188.822 C231.697,188.822 230.816,187.923 230.816,186.809 C230.816,185.696 231.697,184.795 232.792,184.795 C233.886,184.795 234.766,185.696 234.766,186.809 C234.766,187.923 233.886,188.822 232.792,188.822 Z M230.39,186.809 C230.39,188.136 231.464,189.211 232.792,189.211 C234.119,189.211 235.193,188.136 235.193,186.809 C235.193,185.481 234.119,184.407 232.792,184.407 C231.464,184.407 230.39,185.481 230.39,186.809 Z M231.834,188.227 L232.261,188.227 L232.261,187.049 L232.721,187.049 L233.497,188.227 L233.925,188.227 L233.121,187.015 C233.549,186.971 233.88,186.737 233.88,186.239 C233.88,185.682 233.542,185.417 232.921,185.417 L231.834,185.417 L231.834,188.227 Z M232.261,186.66 L232.261,185.806 L232.843,185.806 C233.142,185.806 233.452,185.85 233.452,186.22 C233.452,186.64 233.108,186.66 232.721,186.66 L232.261,186.66 L232.261,186.66 Z" fill="#1A1919"/>
	</g>
</symbol><symbol id="plus" viewBox="0 0 24 24">
	<path d="M13 6a1 1 0 10-2 0v5H6a1 1 0 100 2h5v5a1 1 0 102 0v-5h5a1 1 0 100-2h-5V6z"/>
</symbol><symbol id="question-mark" viewBox="0 0 32 32">
	<path fill-rule="evenodd" clip-rule="evenodd" d="M24 16.456a7.456 7.456 0 0 1-11.483 6.277l-3.95.527a.5.5 0 0 1-.52-.705l1.555-3.37A7.456 7.456 0 1 1 24 16.456zm-6.914 1.54h-1.361v-.13c.003-1.084.278-1.42.786-1.746.4-.256.703-.505.703-.895 0-.38-.3-.633-.677-.633-.38 0-.72.269-.729.713h-1.47c.019-1.342 1.01-1.94 2.211-1.94 1.317 0 2.273.627 2.273 1.787 0 .764-.406 1.227-1.02 1.588-.482.288-.716.56-.716 1.125v.131zm.176 1.266a.848.848 0 0 1-.83.83.825.825 0 0 1-.832-.83.821.821 0 0 1 .831-.822c.438 0 .825.368.831.822z"/>
</symbol><symbol id="search" viewBox="0 0 24 24">
	<path fill-rule="evenodd" clip-rule="evenodd" d="M6 11a5 5 0 1110 0 5 5 0 01-10 0zm5-7a7 7 0 104.2 12.6.999.999 0 00.093.107l3 3a1 1 0 001.414-1.414l-3-3a.999.999 0 00-.107-.093A7 7 0 0011 4z"/>
</symbol><symbol id="sign-in" viewBox="0 0 512 512">
	<path class="lexicon-icon-outline lx-sign-in-border" d="M416,0H96C60.7,0,32,28.6,32,64v64h64V64h320v384H96v-64H32v64c0,35.4,28.7,64,64,64h320c35.4,0,64-28.6,64-64V64C480,28.6,451.4,0,416,0z"/>
	<path class="lexicon-icon-outline lx-sign-in-arrow-right" d="M310.4,233.1l-71.6-71.6c-27.2-27.4-76.2,9.4-45.8,45.8l16.7,16.7l-145.8,0.1c-43,0-42,64,0,64l145.8-0.1L193,304.7c-30.4,36.2,18.8,72.6,45.8,45.8l71.6-71.6C316.5,272.8,327.7,253.3,310.4,233.1z"/>
</symbol><symbol id="sort-ascending" viewBox="0 0 28 28">
	<path d="M8.545 11.585a1.167 1.167 0 101.577 1.72l2.712-2.486V21a1.167 1.167 0 102.333 0V10.82l2.712 2.485a1.167 1.167 0 101.576-1.72L14.79 7.307a1.167 1.167 0 00-1.577 0l-4.667 4.278z"/>
</symbol><symbol id="sort-descending" viewBox="0 0 28 28">
	<path d="M19.455 16.415a1.167 1.167 0 10-1.577-1.72l-2.712 2.486V7a1.167 1.167 0 10-2.333 0v10.18l-2.712-2.485a1.167 1.167 0 10-1.576 1.72l4.666 4.278c.446.409 1.131.409 1.577 0l4.667-4.278z"/>
</symbol><symbol id="sort" viewBox="0 0 24 28">
	<path d="M8.883 6.62a.667.667 0 00.901.983l1.55-1.42V12a.667.667 0 101.333 0V6.183l1.55 1.42a.667.667 0 00.9-.983l-2.666-2.444a.667.667 0 00-.901 0L8.883 6.62zM15.117 21.38a.667.667 0 10-.901-.983l-1.55 1.42V16a.667.667 0 10-1.333 0v5.817l-1.55-1.42a.667.667 0 10-.9.983l2.666 2.444a.667.667 0 00.901 0l2.667-2.444z"/>
</symbol></svg>