<?xml version="1.0" encoding="UTF-8"?>
<svg width="236px" height="221px" viewBox="0 0 236 221" version="1.1" xmlns="http://www.w3.org/2000/svg" xmlns:xlink="http://www.w3.org/1999/xlink">
	<title>CMI+CMYK</title>
	<g id="CMI+CMYK" stroke="none" stroke-width="1" fill="none" fill-rule="evenodd">
		<g id="Group-4">
			<mask id="mask-2" fill="white">
				<polygon points="0.06 0.144 227.327 0.144 227.327 189.53 0.06 189.53"></polygon>
			</mask>
			<g id="Clip-2"></g>
			<polyline id="Fill-1" fill="#D82332" mask="url(#mask-2)" points="204.105 0.144 182.454 175.646 1.492 175.646 1.492 189.385 195.466 189.385 204.317 57.999 212.747 189.53 227.327 189.53 204.105 0.144"></polyline>
			<path d="M20.708,55.141 C14.455,55.141 10.94,62.017 10.94,80.304 C10.94,100.463 15.395,103.746 19.926,103.746 C22.661,103.746 25.785,102.183 27.742,100.232 L27.742,107.654 C25.785,108.824 21.88,109.605 18.363,109.605 C7.893,109.605 0,100.698 0,80.304 C0,61.159 8.987,49.828 20.708,49.828 C23.835,49.828 25.785,50.217 28.13,50.998 L28.13,58.425 C26.179,56.861 23.441,55.141 20.708,55.141" id="Fill-3" fill="#1A1919" mask="url(#mask-2)"></path>
		</g>
		<path d="M49.612,108.434 L49.612,80.696 C49.612,76.396 48.831,73.661 45.314,73.661 C43.359,73.661 41.018,75.615 41.018,79.521 L41.018,108.434 L31.641,108.434 L31.641,51.001 L41.018,51.001 L41.018,72.488 C42.578,69.362 46.096,67.41 49.222,67.41 C55.084,67.41 58.989,70.925 58.989,79.133 L58.989,108.434 L49.612,108.434" id="Fill-5" fill="#1A1919"></path>
		<path d="M84.373,108.434 L84.373,104.139 C83.199,106.482 80.077,109.608 75.777,109.608 C69.916,109.608 66.007,106.09 66.007,97.496 L66.007,68.584 L75.387,68.584 L75.387,95.933 C75.387,100.62 76.557,102.963 79.295,102.963 C82.42,102.963 83.983,100.62 83.983,95.933 L83.983,68.584 L93.358,68.584 L93.358,108.434 L84.373,108.434" id="Fill-6" fill="#1A1919"></path>
		<path d="M117.182,76.006 C112.886,76.006 110.537,80.302 110.537,88.118 L110.537,108.434 L101.16,108.434 L101.16,68.583 L110.148,68.583 L110.148,78.351 C111.711,71.316 113.664,67.41 118.354,67.41 C119.057,67.41 120.15,67.567 120.696,67.802 L120.696,76.787 C119.523,76.241 118.745,76.006 117.182,76.006" id="Fill-7" fill="#1A1919"></path>
		<path d="M136.32,109.607 C127.881,109.607 121.863,103.354 121.863,88.899 C121.863,76.006 127.881,67.408 137.884,67.408 C140.229,67.408 142.184,67.802 143.742,68.193 L143.742,75.616 C142.184,74.053 140.62,72.879 138.275,72.879 C135.149,72.879 132.024,74.834 132.024,88.117 C132.024,102.573 135.149,103.901 137.884,103.901 C140.229,103.901 142.184,102.573 143.742,100.621 L143.742,108.044 C142.184,108.826 139.057,109.607 136.32,109.607" id="Fill-8" fill="#1A1919"></path>
		<path d="M166.393,108.434 L166.393,80.696 C166.393,76.396 165.611,73.661 162.095,73.661 C160.14,73.661 157.799,75.615 157.799,79.521 L157.799,108.434 L148.418,108.434 L148.418,51.001 L157.799,51.001 L157.799,72.488 C159.358,69.362 162.877,67.41 166.003,67.41 C171.862,67.41 175.771,70.925 175.771,79.133 L175.771,108.434 L166.393,108.434" id="Fill-9" fill="#1A1919"></path>
		<polyline id="Fill-10" fill="#1A1919" points="32.847 166.428 32.847 126.507 22.549 166.428 17.981 166.428 7.465 127.237 7.465 166.428 2.025 166.428 2.025 112.587 12.905 112.587 22.332 147.75 31.397 112.587 41.913 112.587 41.913 166.428 32.847 166.428"></polyline>
		<path d="M64.563,166.428 L64.563,162.4 C63.464,164.597 60.536,167.527 56.504,167.527 C51.011,167.527 47.348,164.232 47.348,156.173 L47.348,129.069 L56.14,129.069 L56.14,154.71 C56.14,159.103 57.239,161.302 59.803,161.302 C62.731,161.302 64.195,159.103 64.195,154.71 L64.195,129.069 L72.986,129.069 L72.986,166.428 L64.563,166.428" id="Fill-11" fill="#1A1919"></path>
		<path d="M92.786,167.528 C86.559,167.528 82.897,164.231 82.897,157.272 L82.897,133.83 L78.135,133.83 L78.135,129.07 L83.63,129.07 L87.658,119.914 L91.687,119.914 L91.687,129.07 L99.378,129.07 L99.378,133.83 L91.687,133.83 L91.687,156.54 C91.687,161.667 93.885,162.399 95.717,162.399 C97.182,162.399 98.646,161.667 99.378,160.936 L99.378,166.062 C97.182,167.16 94.982,167.528 92.786,167.528" id="Fill-12" fill="#1A1919"></path>
		<path d="M121.407,166.428 L121.407,162.4 C120.308,164.597 117.379,167.527 113.348,167.527 C107.853,167.527 104.192,164.232 104.192,156.173 L104.192,129.069 L112.98,129.069 L112.98,154.71 C112.98,159.103 114.083,161.302 116.647,161.302 C119.575,161.302 121.039,159.103 121.039,154.71 L121.039,129.069 L129.831,129.069 L129.831,166.428 L121.407,166.428" id="Fill-13" fill="#1A1919"></path>
		<path d="M151.064,147.749 L149.82,148.117 C146.01,149.213 143.445,151.191 143.373,155.073 C143.301,159.616 144.84,161.301 147.4,161.301 C149.601,161.301 151.064,159.47 151.064,156.173 L151.064,147.749 Z M153.85,166.428 C152.896,164.964 152.527,164.231 152.163,162.032 C150.699,165.329 147.4,167.16 143.739,167.16 C138.248,167.16 134.947,162.764 134.947,156.541 C134.947,147.749 142.491,145.843 149.601,144.086 L151.064,143.722 L151.064,137.86 C151.064,133.831 149.232,133.098 146.668,133.098 C143.739,133.098 142.641,135.298 142.641,138.374 L142.641,140.058 L135.681,140.058 L135.681,139.69 C135.681,133.467 140.444,127.97 148.135,127.97 C154.727,127.97 159.487,130.534 159.487,138.593 L159.487,158.368 C159.487,162.032 160.22,163.501 162.052,166.428 L153.85,166.428 L153.85,166.428 Z" id="Fill-14" fill="#1A1919"></path>
		<polyline id="Fill-15" fill="#1A1919" points="166.338 166.428 166.258 112.479 175.683 112.479 175.685 166.428 166.338 166.428"></polyline>
		<polygon id="Fill-16" fill="#1A1919" points="2.025 220.33 5.821 220.33 5.821 198.545 2.025 198.545"></polygon>
		<polyline id="Fill-17" fill="#1A1919" points="30.79 220.333 24.921 204.329 24.921 220.333 22.73 220.333 22.73 198.547 26.5 198.547 31.637 212.328 31.637 198.547 33.829 198.547 33.829 220.333 30.79 220.333"></polyline>
		<path d="M53.895,220.928 C52.873,220.928 51.993,220.776 51.12,220.332 L51.12,217.37 C52.29,218.407 53.163,218.762 54.333,218.762 C56.086,218.762 57.253,217.37 57.253,215.739 C57.253,214.554 56.608,213.513 55.79,212.633 L53.312,209.954 C52.142,208.717 51.12,207.14 51.12,204.479 C51.12,200.921 53.895,198.397 57.253,198.397 C58.416,198.397 59.002,198.488 59.882,198.781 L59.882,201.511 C59.147,200.769 58.13,200.325 57.108,200.325 C55.355,200.325 54.478,201.666 54.478,202.997 C54.478,204.327 55.119,205.307 55.735,205.958 L57.981,208.33 C59.905,210.373 60.607,211.649 60.607,214.108 C60.607,217.814 57.543,220.928 53.895,220.928" id="Fill-18" fill="#1A1919"></path>
		<path d="M81.367,220.779 C78.592,220.779 75.966,219.088 75.966,214.763 L75.966,198.546 L79.762,198.546 L79.762,214.701 C79.762,217.222 80.494,218.491 81.951,218.491 C83.465,218.491 84.432,217.518 84.432,214.556 L84.432,198.546 L86.769,198.546 L86.769,214.556 C86.769,219.149 83.994,220.779 81.367,220.779" id="Fill-19" fill="#1A1919"></path>
		<path d="M107.239,200.326 L106.507,200.326 L106.507,209.514 L107.239,209.514 C109.282,209.514 110.304,208.476 110.304,204.77 C110.304,201.067 109.282,200.326 107.239,200.326 M111.325,220.333 L107.97,211.444 L106.507,211.444 L106.507,220.333 L102.717,220.333 L102.717,198.547 L106.507,198.398 C111.473,198.222 114.1,199.642 114.1,204.177 C114.1,206.697 112.93,209.072 111.325,210.106 L115.618,220.333 L111.325,220.333" id="Fill-20" fill="#1A1919"></path>
		<path d="M138.072,202.326 L136.178,211.666 L139.913,211.666 L138.072,202.326 Z M141.666,220.557 L140.318,213.738 L135.826,213.738 L134.425,220.557 L131.943,220.557 L137.051,198.768 L140.848,198.768 L145.665,220.557 L141.666,220.557 L141.666,220.557 Z" id="Fill-21" fill="#1A1919"></path>
		<g id="Group-25" transform="translate(161.000000, 198.000000)">
			<mask id="mask-4" fill="white">
				<polygon points="0.99 0.325 40.01 0.325 40.01 22.94 0.99 22.94"></polygon>
			</mask>
			<g id="Clip-23"></g>
			<polyline id="Fill-22" fill="#1A1919" mask="url(#mask-4)" points="9.051 22.333 3.182 6.329 3.182 22.333 0.99 22.333 0.99 0.547 4.761 0.547 9.899 14.328 9.899 0.547 12.09 0.547 12.09 22.333 9.051 22.333"></polyline>
			<path d="M37.234,2.34 C34.899,2.34 33.587,4.95 33.587,11.889 C33.587,19.536 35.246,20.776 36.944,20.776 C37.966,20.776 39.13,20.186 39.861,19.449 L39.861,22.259 C39.13,22.707 37.673,23 36.361,23 C32.449,23 29.5,19.62 29.5,11.889 C29.5,4.628 32.855,0.325 37.234,0.325 C38.404,0.325 39.13,0.473 40.01,0.769 L40.01,3.583 C39.278,2.997 38.256,2.34 37.234,2.34" id="Fill-24" fill="#1A1919" mask="url(#mask-4)"></path>
		</g>
		<polyline id="Fill-26" fill="#1A1919" points="218.42 220.333 218.42 198.547 227.18 198.547 227.18 200.771 222.216 200.809 222.216 207.941 226.744 207.825 226.744 209.962 222.216 209.84 222.216 218.015 227.327 218.022 227.327 220.333 218.42 220.333"></polyline>
		<path d="M232.792,188.822 C231.697,188.822 230.816,187.923 230.816,186.809 C230.816,185.696 231.697,184.795 232.792,184.795 C233.886,184.795 234.766,185.696 234.766,186.809 C234.766,187.923 233.886,188.822 232.792,188.822 Z M230.39,186.809 C230.39,188.136 231.464,189.211 232.792,189.211 C234.119,189.211 235.193,188.136 235.193,186.809 C235.193,185.481 234.119,184.407 232.792,184.407 C231.464,184.407 230.39,185.481 230.39,186.809 Z M231.834,188.227 L232.261,188.227 L232.261,187.049 L232.721,187.049 L233.497,188.227 L233.925,188.227 L233.121,187.015 C233.549,186.971 233.88,186.737 233.88,186.239 C233.88,185.682 233.542,185.417 232.921,185.417 L231.834,185.417 L231.834,188.227 Z M232.261,186.66 L232.261,185.806 L232.843,185.806 C233.142,185.806 233.452,185.85 233.452,186.22 C233.452,186.64 233.108,186.66 232.721,186.66 L232.261,186.66 L232.261,186.66 Z" id="Fill-27" fill="#1A1919"></path>
	</g>
</svg>