<svg xmlns="http://www.w3.org/2000/svg" viewBox="0 0 32 32">
	<path fill-rule="evenodd" clip-rule="evenodd" d="M24 16.456a7.456 7.456 0 0 1-11.483 6.277l-3.95.527a.5.5 0 0 1-.52-.705l1.555-3.37A7.456 7.456 0 1 1 24 16.456zm-6.914 1.54h-1.361v-.13c.003-1.084.278-1.42.786-1.746.4-.256.703-.505.703-.895 0-.38-.3-.633-.677-.633-.38 0-.72.269-.729.713h-1.47c.019-1.342 1.01-1.94 2.211-1.94 1.317 0 2.273.627 2.273 1.787 0 .764-.406 1.227-1.02 1.588-.482.288-.716.56-.716 1.125v.131zm.176 1.266a.848.848 0 0 1-.83.83.825.825 0 0 1-.832-.83.821.821 0 0 1 .831-.822c.438 0 .825.368.831.822z"></path>
</svg>